# Low-poly sphere for flat shading testing
o Sphere
v 0.000000 1.000000 0.000000
v 0.258819 0.965926 0.000000
v 0.250000 0.965926 0.066987
v 0.224144 0.965926 0.129410
v 0.183013 0.965926 0.183013
v 0.129410 0.965926 0.224144
v 0.066987 0.965926 0.250000
v 0.000000 0.965926 0.258819
v -0.066987 0.965926 0.250000
v -0.129410 0.965926 0.224144
v -0.183013 0.965926 0.183013
v -0.224144 0.965926 0.129410
v -0.250000 0.965926 0.066987
v -0.258819 0.965926 0.000000
v -0.250000 0.965926 -0.066987
v -0.224144 0.965926 -0.129410
v -0.183013 0.965926 -0.183013
v -0.129410 0.965926 -0.224144
v -0.066987 0.965926 -0.250000
v -0.000000 0.965926 -0.258819
v 0.066987 0.965926 -0.250000
v 0.129410 0.965926 -0.224144
v 0.183013 0.965926 -0.183013
v 0.224144 0.965926 -0.129410
v 0.250000 0.965926 -0.066987
v 0.500000 0.866025 0.000000
v 0.482963 0.866025 0.129410
v 0.433013 0.866025 0.250000
v 0.353553 0.866025 0.353553
v 0.250000 0.866025 0.433013
v 0.129410 0.866025 0.482963
v 0.000000 0.866025 0.500000
v -0.129410 0.866025 0.482963
v -0.250000 0.866025 0.433013
v -0.353553 0.866025 0.353553
v -0.433013 0.866025 0.250000
v -0.482963 0.866025 0.129410
v -0.500000 0.866025 0.000000
v -0.482963 0.866025 -0.129410
v -0.433013 0.866025 -0.250000
v -0.353553 0.866025 -0.353553
v -0.250000 0.866025 -0.433013
v -0.129410 0.866025 -0.482963
v -0.000000 0.866025 -0.500000
v 0.129410 0.866025 -0.482963
v 0.250000 0.866025 -0.433013
v 0.353553 0.866025 -0.353553
v 0.433013 0.866025 -0.250000
v 0.482963 0.866025 -0.129410
v 0.707107 0.707107 0.000000
v 0.683013 0.707107 0.183013
v 0.612372 0.707107 0.353553
v 0.500000 0.707107 0.500000
v 0.353553 0.707107 0.612372
v 0.183013 0.707107 0.683013
v 0.000000 0.707107 0.707107
v -0.183013 0.707107 0.683013
v -0.353553 0.707107 0.612372
v -0.500000 0.707107 0.500000
v -0.612372 0.707107 0.353553
v -0.683013 0.707107 0.183013
v -0.707107 0.707107 0.000000
v -0.683013 0.707107 -0.183013
v -0.612372 0.707107 -0.353553
v -0.500000 0.707107 -0.500000
v -0.353553 0.707107 -0.612372
v -0.183013 0.707107 -0.683013
v -0.000000 0.707107 -0.707107
v 0.183013 0.707107 -0.683013
v 0.353553 0.707107 -0.612372
v 0.500000 0.707107 -0.500000
v 0.612372 0.707107 -0.353553
v 0.683013 0.707107 -0.183013
v 0.866025 0.500000 0.000000
v 0.836516 0.500000 0.224144
v 0.750000 0.500000 0.433013
v 0.612372 0.500000 0.612372
v 0.433013 0.500000 0.750000
v 0.224144 0.500000 0.836516
v 0.000000 0.500000 0.866025
v -0.224144 0.500000 0.836516
v -0.433013 0.500000 0.750000
v -0.612372 0.500000 0.612372
v -0.750000 0.500000 0.433013
v -0.836516 0.500000 0.224144
v -0.866025 0.500000 0.000000
v -0.836516 0.500000 -0.224144
v -0.750000 0.500000 -0.433013
v -0.612372 0.500000 -0.612372
v -0.433013 0.500000 -0.750000
v -0.224144 0.500000 -0.836516
v -0.000000 0.500000 -0.866025
v 0.224144 0.500000 -0.836516
v 0.433013 0.500000 -0.750000
v 0.612372 0.500000 -0.612372
v 0.750000 0.500000 -0.433013
v 0.836516 0.500000 -0.224144
v 0.965926 0.258819 0.000000
v 0.933013 0.258819 0.250000
v 0.836516 0.258819 0.482963
v 0.683013 0.258819 0.683013
v 0.482963 0.258819 0.836516
v 0.250000 0.258819 0.933013
v 0.000000 0.258819 0.965926
v -0.250000 0.258819 0.933013
v -0.482963 0.258819 0.836516
v -0.683013 0.258819 0.683013
v -0.836516 0.258819 0.482963
v -0.933013 0.258819 0.250000
v -0.965926 0.258819 0.000000
v -0.933013 0.258819 -0.250000
v -0.836516 0.258819 -0.482963
v -0.683013 0.258819 -0.683013
v -0.482963 0.258819 -0.836516
v -0.250000 0.258819 -0.933013
v -0.000000 0.258819 -0.965926
v 0.250000 0.258819 -0.933013
v 0.482963 0.258819 -0.836516
v 0.683013 0.258819 -0.683013
v 0.836516 0.258819 -0.482963
v 0.933013 0.258819 -0.250000
v 1.000000 0.000000 0.000000
v 0.965926 0.000000 0.258819
v 0.866025 0.000000 0.500000
v 0.707107 0.000000 0.707107
v 0.500000 0.000000 0.866025
v 0.258819 0.000000 0.965926
v 0.000000 0.000000 1.000000
v -0.258819 0.000000 0.965926
v -0.500000 0.000000 0.866025
v -0.707107 0.000000 0.707107
v -0.866025 0.000000 0.500000
v -0.965926 0.000000 0.258819
v -1.000000 0.000000 0.000000
v -0.965926 0.000000 -0.258819
v -0.866025 0.000000 -0.500000
v -0.707107 0.000000 -0.707107
v -0.500000 0.000000 -0.866025
v -0.258819 0.000000 -0.965926
v -0.000000 0.000000 -1.000000
v 0.258819 0.000000 -0.965926
v 0.500000 0.000000 -0.866025
v 0.707107 0.000000 -0.707107
v 0.866025 0.000000 -0.500000
v 0.965926 0.000000 -0.258819
v 0.965926 -0.258819 0.000000
v 0.933013 -0.258819 0.250000
v 0.836516 -0.258819 0.482963
v 0.683013 -0.258819 0.683013
v 0.482963 -0.258819 0.836516
v 0.250000 -0.258819 0.933013
v 0.000000 -0.258819 0.965926
v -0.250000 -0.258819 0.933013
v -0.482963 -0.258819 0.836516
v -0.683013 -0.258819 0.683013
v -0.836516 -0.258819 0.482963
v -0.933013 -0.258819 0.250000
v -0.965926 -0.258819 0.000000
v -0.933013 -0.258819 -0.250000
v -0.836516 -0.258819 -0.482963
v -0.683013 -0.258819 -0.683013
v -0.482963 -0.258819 -0.836516
v -0.250000 -0.258819 -0.933013
v -0.000000 -0.258819 -0.965926
v 0.250000 -0.258819 -0.933013
v 0.482963 -0.258819 -0.836516
v 0.683013 -0.258819 -0.683013
v 0.836516 -0.258819 -0.482963
v 0.933013 -0.258819 -0.250000
v 0.866025 -0.500000 0.000000
v 0.836516 -0.500000 0.224144
v 0.750000 -0.500000 0.433013
v 0.612372 -0.500000 0.612372
v 0.433013 -0.500000 0.750000
v 0.224144 -0.500000 0.836516
v 0.000000 -0.500000 0.866025
v -0.224144 -0.500000 0.836516
v -0.433013 -0.500000 0.750000
v -0.612372 -0.500000 0.612372
v -0.750000 -0.500000 0.433013
v -0.836516 -0.500000 0.224144
v -0.866025 -0.500000 0.000000
v -0.836516 -0.500000 -0.224144
v -0.750000 -0.500000 -0.433013
v -0.612372 -0.500000 -0.612372
v -0.433013 -0.500000 -0.750000
v -0.224144 -0.500000 -0.836516
v -0.000000 -0.500000 -0.866025
v 0.224144 -0.500000 -0.836516
v 0.433013 -0.500000 -0.750000
v 0.612372 -0.500000 -0.612372
v 0.750000 -0.500000 -0.433013
v 0.836516 -0.500000 -0.224144
v 0.707107 -0.707107 0.000000
v 0.683013 -0.707107 0.183013
v 0.612372 -0.707107 0.353553
v 0.500000 -0.707107 0.500000
v 0.353553 -0.707107 0.612372
v 0.183013 -0.707107 0.683013
v 0.000000 -0.707107 0.707107
v -0.183013 -0.707107 0.683013
v -0.353553 -0.707107 0.612372
v -0.500000 -0.707107 0.500000
v -0.612372 -0.707107 0.353553
v -0.683013 -0.707107 0.183013
v -0.707107 -0.707107 0.000000
v -0.683013 -0.707107 -0.183013
v -0.612372 -0.707107 -0.353553
v -0.500000 -0.707107 -0.500000
v -0.353553 -0.707107 -0.612372
v -0.183013 -0.707107 -0.683013
v -0.000000 -0.707107 -0.707107
v 0.183013 -0.707107 -0.683013
v 0.353553 -0.707107 -0.612372
v 0.500000 -0.707107 -0.500000
v 0.612372 -0.707107 -0.353553
v 0.683013 -0.707107 -0.183013
v 0.500000 -0.866025 0.000000
v 0.482963 -0.866025 0.129410
v 0.433013 -0.866025 0.250000
v 0.353553 -0.866025 0.353553
v 0.250000 -0.866025 0.433013
v 0.129410 -0.866025 0.482963
v 0.000000 -0.866025 0.500000
v -0.129410 -0.866025 0.482963
v -0.250000 -0.866025 0.433013
v -0.353553 -0.866025 0.353553
v -0.433013 -0.866025 0.250000
v -0.482963 -0.866025 0.129410
v -0.500000 -0.866025 0.000000
v -0.482963 -0.866025 -0.129410
v -0.433013 -0.866025 -0.250000
v -0.353553 -0.866025 -0.353553
v -0.250000 -0.866025 -0.433013
v -0.129410 -0.866025 -0.482963
v -0.000000 -0.866025 -0.500000
v 0.129410 -0.866025 -0.482963
v 0.250000 -0.866025 -0.433013
v 0.353553 -0.866025 -0.353553
v 0.433013 -0.866025 -0.250000
v 0.482963 -0.866025 -0.129410
v 0.258819 -0.965926 0.000000
v 0.250000 -0.965926 0.066987
v 0.224144 -0.965926 0.129410
v 0.183013 -0.965926 0.183013
v 0.129410 -0.965926 0.224144
v 0.066987 -0.965926 0.250000
v 0.000000 -0.965926 0.258819
v -0.066987 -0.965926 0.250000
v -0.129410 -0.965926 0.224144
v -0.183013 -0.965926 0.183013
v -0.224144 -0.965926 0.129410
v -0.250000 -0.965926 0.066987
v -0.258819 -0.965926 0.000000
v -0.250000 -0.965926 -0.066987
v -0.224144 -0.965926 -0.129410
v -0.183013 -0.965926 -0.183013
v -0.129410 -0.965926 -0.224144
v -0.066987 -0.965926 -0.250000
v -0.000000 -0.965926 -0.258819
v 0.066987 -0.965926 -0.250000
v 0.129410 -0.965926 -0.224144
v 0.183013 -0.965926 -0.183013
v 0.224144 -0.965926 -0.129410
v 0.250000 -0.965926 -0.066987
v 0.000000 -1.000000 0.000000
f 1 2 1
f 1 3 2
f 1 4 3
f 1 5 4
f 1 6 5
f 1 7 6
f 1 8 7
f 1 9 8
f 1 10 9
f 1 11 10
f 1 12 11
f 1 13 12
f 1 14 13
f 1 15 14
f 1 16 15
f 1 17 16
f 1 18 17
f 1 19 18
f 1 20 19
f 1 21 20
f 1 22 21
f 1 23 22
f 1 24 23
f 1 1 24
f 1 2 25
f 2 26 25
f 2 3 26
f 3 27 26
f 3 4 27
f 4 28 27
f 4 5 28
f 5 29 28
f 5 6 29
f 6 30 29
f 6 7 30
f 7 31 30
f 7 8 31
f 8 32 31
f 8 9 32
f 9 33 32
f 9 10 33
f 10 34 33
f 10 11 34
f 11 35 34
f 11 12 35
f 12 36 35
f 12 13 36
f 13 37 36
f 13 14 37
f 14 38 37
f 14 15 38
f 15 39 38
f 15 16 39
f 16 40 39
f 16 17 40
f 17 41 40
f 17 18 41
f 18 42 41
f 18 19 42
f 19 43 42
f 19 20 43
f 20 44 43
f 20 21 44
f 21 45 44
f 21 22 45
f 22 46 45
f 22 23 46
f 23 47 46
f 23 24 47
f 24 48 47
f 24 1 48
f 1 25 48
f 25 26 49
f 26 50 49
f 26 27 50
f 27 51 50
f 27 28 51
f 28 52 51
f 28 29 52
f 29 53 52
f 29 30 53
f 30 54 53
f 30 31 54
f 31 55 54
f 31 32 55
f 32 56 55
f 32 33 56
f 33 57 56
f 33 34 57
f 34 58 57
f 34 35 58
f 35 59 58
f 35 36 59
f 36 60 59
f 36 37 60
f 37 61 60
f 37 38 61
f 38 62 61
f 38 39 62
f 39 63 62
f 39 40 63
f 40 64 63
f 40 41 64
f 41 65 64
f 41 42 65
f 42 66 65
f 42 43 66
f 43 67 66
f 43 44 67
f 44 68 67
f 44 45 68
f 45 69 68
f 45 46 69
f 46 70 69
f 46 47 70
f 47 71 70
f 47 48 71
f 48 72 71
f 48 25 72
f 25 49 72
f 49 50 73
f 50 74 73
f 50 51 74
f 51 75 74
f 51 52 75
f 52 76 75
f 52 53 76
f 53 77 76
f 53 54 77
f 54 78 77
f 54 55 78
f 55 79 78
f 55 56 79
f 56 80 79
f 56 57 80
f 57 81 80
f 57 58 81
f 58 82 81
f 58 59 82
f 59 83 82
f 59 60 83
f 60 84 83
f 60 61 84
f 61 85 84
f 61 62 85
f 62 86 85
f 62 63 86
f 63 87 86
f 63 64 87
f 64 88 87
f 64 65 88
f 65 89 88
f 65 66 89
f 66 90 89
f 66 67 90
f 67 91 90
f 67 68 91
f 68 92 91
f 68 69 92
f 69 93 92
f 69 70 93
f 70 94 93
f 70 71 94
f 71 95 94
f 71 72 95
f 72 96 95
f 72 49 96
f 49 73 96
f 73 74 97
f 74 98 97
f 74 75 98
f 75 99 98
f 75 76 99
f 76 100 99
f 76 77 100
f 77 101 100
f 77 78 101
f 78 102 101
f 78 79 102
f 79 103 102
f 79 80 103
f 80 104 103
f 80 81 104
f 81 105 104
f 81 82 105
f 82 106 105
f 82 83 106
f 83 107 106
f 83 84 107
f 84 108 107
f 84 85 108
f 85 109 108
f 85 86 109
f 86 110 109
f 86 87 110
f 87 111 110
f 87 88 111
f 88 112 111
f 88 89 112
f 89 113 112
f 89 90 113
f 90 114 113
f 90 91 114
f 91 115 114
f 91 92 115
f 92 116 115
f 92 93 116
f 93 117 116
f 93 94 117
f 94 118 117
f 94 95 118
f 95 119 118
f 95 96 119
f 96 120 119
f 96 73 120
f 73 97 120
f 97 98 121
f 98 122 121
f 98 99 122
f 99 123 122
f 99 100 123
f 100 124 123
f 100 101 124
f 101 125 124
f 101 102 125
f 102 126 125
f 102 103 126
f 103 127 126
f 103 104 127
f 104 128 127
f 104 105 128
f 105 129 128
f 105 106 129
f 106 130 129
f 106 107 130
f 107 131 130
f 107 108 131
f 108 132 131
f 108 109 132
f 109 133 132
f 109 110 133
f 110 134 133
f 110 111 134
f 111 135 134
f 111 112 135
f 112 136 135
f 112 113 136
f 113 137 136
f 113 114 137
f 114 138 137
f 114 115 138
f 115 139 138
f 115 116 139
f 116 140 139
f 116 117 140
f 117 141 140
f 117 118 141
f 118 142 141
f 118 119 142
f 119 143 142
f 119 120 143
f 120 144 143
f 120 97 144
f 97 121 144
f 121 122 145
f 122 146 145
f 122 123 146
f 123 147 146
f 123 124 147
f 124 148 147
f 124 125 148
f 125 149 148
f 125 126 149
f 126 150 149
f 126 127 150
f 127 151 150
f 127 128 151
f 128 152 151
f 128 129 152
f 129 153 152
f 129 130 153
f 130 154 153
f 130 131 154
f 131 155 154
f 131 132 155
f 132 156 155
f 132 133 156
f 133 157 156
f 133 134 157
f 134 158 157
f 134 135 158
f 135 159 158
f 135 136 159
f 136 160 159
f 136 137 160
f 137 161 160
f 137 138 161
f 138 162 161
f 138 139 162
f 139 163 162
f 139 140 163
f 140 164 163
f 140 141 164
f 141 165 164
f 141 142 165
f 142 166 165
f 142 143 166
f 143 167 166
f 143 144 167
f 144 168 167
f 144 121 168
f 121 145 168
f 145 146 169
f 146 170 169
f 146 147 170
f 147 171 170
f 147 148 171
f 148 172 171
f 148 149 172
f 149 173 172
f 149 150 173
f 150 174 173
f 150 151 174
f 151 175 174
f 151 152 175
f 152 176 175
f 152 153 176
f 153 177 176
f 153 154 177
f 154 178 177
f 154 155 178
f 155 179 178
f 155 156 179
f 156 180 179
f 156 157 180
f 157 181 180
f 157 158 181
f 158 182 181
f 158 159 182
f 159 183 182
f 159 160 183
f 160 184 183
f 160 161 184
f 161 185 184
f 161 162 185
f 162 186 185
f 162 163 186
f 163 187 186
f 163 164 187
f 164 188 187
f 164 165 188
f 165 189 188
f 165 166 189
f 166 190 189
f 166 167 190
f 167 191 190
f 167 168 191
f 168 192 191
f 168 145 192
f 145 169 192
f 169 170 193
f 170 194 193
f 170 171 194
f 171 195 194
f 171 172 195
f 172 196 195
f 172 173 196
f 173 197 196
f 173 174 197
f 174 198 197
f 174 175 198
f 175 199 198
f 175 176 199
f 176 200 199
f 176 177 200
f 177 201 200
f 177 178 201
f 178 202 201
f 178 179 202
f 179 203 202
f 179 180 203
f 180 204 203
f 180 181 204
f 181 205 204
f 181 182 205
f 182 206 205
f 182 183 206
f 183 207 206
f 183 184 207
f 184 208 207
f 184 185 208
f 185 209 208
f 185 186 209
f 186 210 209
f 186 187 210
f 187 211 210
f 187 188 211
f 188 212 211
f 188 189 212
f 189 213 212
f 189 190 213
f 190 214 213
f 190 191 214
f 191 215 214
f 191 192 215
f 192 216 215
f 192 169 216
f 169 193 216
f 193 194 217
f 194 218 217
f 194 195 218
f 195 219 218
f 195 196 219
f 196 220 219
f 196 197 220
f 197 221 220
f 197 198 221
f 198 222 221
f 198 199 222
f 199 223 222
f 199 200 223
f 200 224 223
f 200 201 224
f 201 225 224
f 201 202 225
f 202 226 225
f 202 203 226
f 203 227 226
f 203 204 227
f 204 228 227
f 204 205 228
f 205 229 228
f 205 206 229
f 206 230 229
f 206 207 230
f 207 231 230
f 207 208 231
f 208 232 231
f 208 209 232
f 209 233 232
f 209 210 233
f 210 234 233
f 210 211 234
f 211 235 234
f 211 212 235
f 212 236 235
f 212 213 236
f 213 237 236
f 213 214 237
f 214 238 237
f 214 215 238
f 215 239 238
f 215 216 239
f 216 240 239
f 216 193 240
f 193 217 240
f 217 218 241
f 218 242 241
f 218 219 242
f 219 243 242
f 219 220 243
f 220 244 243
f 220 221 244
f 221 245 244
f 221 222 245
f 222 246 245
f 222 223 246
f 223 247 246
f 223 224 247
f 224 248 247
f 224 225 248
f 225 249 248
f 225 226 249
f 226 250 249
f 226 227 250
f 227 251 250
f 227 228 251
f 228 252 251
f 228 229 252
f 229 253 252
f 229 230 253
f 230 254 253
f 230 231 254
f 231 255 254
f 231 232 255
f 232 256 255
f 232 233 256
f 233 257 256
f 233 234 257
f 234 258 257
f 234 235 258
f 235 259 258
f 235 236 259
f 236 260 259
f 236 237 260
f 237 261 260
f 237 238 261
f 238 262 261
f 238 239 262
f 239 263 262
f 239 240 263
f 240 264 263
f 240 217 264
f 217 241 264
f 266 241 242
f 266 242 243
f 266 243 244
f 266 244 245
f 266 245 246
f 266 246 247
f 266 247 248
f 266 248 249
f 266 249 250
f 266 250 251
f 266 251 252
f 266 252 253
f 266 253 254
f 266 254 255
f 266 255 256
f 266 256 257
f 266 257 258
f 266 258 259
f 266 259 260
f 266 260 261
f 266 261 262
f 266 262 263
f 266 263 264
f 266 264 241
